<?xml version="1.0" encoding="UTF-8" standalone="no"?>
<svg
   xmlns:dc="https://purl.org/dc/elements/1.1/"
   xmlns:cc="https://creativecommons.org/ns#"
   xmlns:rdf="https://www.w3.org/1999/02/22-rdf-syntax-ns#"
   xmlns:svg="https://www.w3.org/2000/svg"
   xmlns="https://www.w3.org/2000/svg"
   xmlns:sodipodi="https://sodipodi.sourceforge.net/DTD/sodipodi-0.dtd"
   xmlns:inkscape="https://www.inkscape.org/namespaces/inkscape"
   height="850"
   width="850"
   id="svg2"
   version="1.1"
   inkscape:version="0.48.2 r9819"
   sodipodi:docname="rss6.svg">
  <metadata
     id="metadata10">
    <rdf:RDF>
      <cc:Work
         rdf:about="">
        <dc:format>image/svg+xml</dc:format>
        <dc:type
           rdf:resource="https://purl.org/dc/dcmitype/StillImage" />
        <dc:title></dc:title>
      </cc:Work>
    </rdf:RDF>
  </metadata>
  <defs
     id="defs8" />
  <sodipodi:namedview
     pagecolor="#ffffff"
     bordercolor="#666666"
     borderopacity="1"
     objecttolerance="10"
     gridtolerance="10"
     guidetolerance="10"
     inkscape:pageopacity="0"
     inkscape:pageshadow="2"
     inkscape:window-width="2184"
     inkscape:window-height="1296"
     id="namedview6"
     showgrid="false"
     inkscape:zoom="0.944"
     inkscape:cx="722.55695"
     inkscape:cy="310.42207"
     inkscape:window-x="131"
     inkscape:window-y="113"
     inkscape:window-maximized="0"
     inkscape:current-layer="svg2" />
  <path
     d="M 733.625 321.65625 C 653.08147 321.65625 599.40758 340.77882 574.8125 351.25 C 552.63162 360.69336 532.52327 371.12761 504.25 390.625 C 477.65605 408.96431 458.53388 438.96603 459.59375 472.34375 C 460.51508 501.35844 462.62964 519.25429 483.65625 542.90625 C 511.29729 573.9985 526.12625 573.54222 541.25 577.75 C 567.06047 584.93107 599.47968 575.61285 616.1875 565.84375 C 627.75581 559.07972 637.65441 553.38665 646.4375 549.125 L 646.4375 733.71875 C 646.36408 735.50749 646.34375 737.33333 646.34375 739.15625 C 646.34375 768.32292 655.73603 792.90625 674.53125 812.90625 C 693.32648 832.90625 715.76059 842.90625 741.84375 842.90625 C 767.92692 842.90625 790.36103 832.90625 809.15625 812.90625 C 827.95147 792.90625 837.375 768.32292 837.375 739.15625 C 837.375 738.65332 837.34934 738.15658 837.34375 737.65625 L 837.4375 737.65625 L 837.4375 435.03125 L 837.0625 435.03125 C 837.25631 432.27651 837.375 429.49801 837.375 426.65625 C 837.375 397.48958 827.16667 372.69792 806.75 352.28125 C 786.33333 331.86458 761.95833 321.65625 733.625 321.65625 z "
     id="path3094" />
  <path
     d="m 4.862292,739.14618 q 0,-197.5 97.499998,-365.625 97.5,-168.125 265.625,-266.25 168.125,-98.124998 365.625,-98.124998 42.5,0 73.125,30.625 30.625,30.625 30.625,74.374998 0,43.75 -30.625,73.75 -30.625,30 -73.125,30 -215,0 -368.125,152.5 -153.125,152.5 -153.125,368.75 0,43.75 -30.625,73.75 -30.625,30 -73.125,30 -42.499998,0 -73.124998,-30 -30.625,-30 -30.625,-73.75 z"
     id="path3092" />
  <path
     inkscape:connector-curvature="0"
     d="m 317.21824,739.39051 q 0,-43.75 30.625,-74.375 30.625,-30.625 73.125,-30.625 42.5,0 73.125,30.625 30.625,30.625 30.625,74.375 0,43.75 -30.625,73.75 -30.625,30 -73.125,30 -42.5,0 -73.125,-30 -30.625,-30 -30.625,-73.75 z"
     id="path3094-7"
     style="fill:#000000" />
</svg>
